<svg width="204" height="59" viewBox="0 0 204 59" fill="none" xmlns="http://www.w3.org/2000/svg">
<path d="M94.32 30.008H98.928V47H94.704V44.744C92.24 46.504 89.12 47.384 85.344 47.384C82.304 47.384 79.472 46.712 76.848 45.368C74.256 44.024 72.176 42.072 70.608 39.512C69.072 36.92 68.304 33.864 68.304 30.344C68.304 27.016 69.072 24.04 70.608 21.416C72.176 18.792 74.32 16.744 77.04 15.272C79.792 13.768 82.88 13.016 86.304 13.016C88.992 13.016 91.424 13.464 93.6 14.36C95.808 15.224 97.68 16.504 99.216 18.2L96.24 21.176C93.552 18.584 90.304 17.288 86.496 17.288C83.936 17.288 81.632 17.848 79.584 18.968C77.568 20.088 75.984 21.64 74.832 23.624C73.68 25.608 73.104 27.848 73.104 30.344C73.104 33 73.68 35.304 74.832 37.256C76.016 39.208 77.568 40.696 79.488 41.72C81.408 42.712 83.488 43.208 85.728 43.208C87.296 43.208 88.816 42.952 90.288 42.44C91.792 41.896 93.136 41.112 94.32 40.088V30.008ZM118.342 47.288C115.814 47.288 113.542 46.728 111.526 45.608C109.51 44.488 107.926 42.952 106.774 41C105.654 39.016 105.094 36.776 105.094 34.28C105.094 31.784 105.654 29.56 106.774 27.608C107.926 25.624 109.51 24.088 111.526 23C113.542 21.88 115.814 21.32 118.342 21.32C120.87 21.32 123.126 21.88 125.11 23C127.126 24.088 128.694 25.624 129.814 27.608C130.966 29.56 131.542 31.784 131.542 34.28C131.542 36.776 130.966 39.016 129.814 41C128.694 42.952 127.126 44.488 125.11 45.608C123.126 46.728 120.87 47.288 118.342 47.288ZM118.342 43.256C119.974 43.256 121.43 42.888 122.71 42.152C124.022 41.384 125.046 40.328 125.782 38.984C126.518 37.608 126.886 36.04 126.886 34.28C126.886 32.52 126.518 30.968 125.782 29.624C125.046 28.248 124.022 27.192 122.71 26.456C121.43 25.72 119.974 25.352 118.342 25.352C116.71 25.352 115.238 25.72 113.926 26.456C112.646 27.192 111.622 28.248 110.854 29.624C110.118 30.968 109.75 32.52 109.75 34.28C109.75 36.04 110.118 37.608 110.854 38.984C111.622 40.328 112.646 41.384 113.926 42.152C115.238 42.888 116.71 43.256 118.342 43.256ZM165.728 13.4V47H161.12V42.248C158.848 45.672 155.2 47.384 150.176 47.384C146.176 47.384 143.04 46.168 140.768 43.736C138.528 41.304 137.408 37.832 137.408 33.32V13.4H142.208V33.176C142.208 36.408 143.008 38.872 144.608 40.568C146.208 42.264 148.4 43.112 151.184 43.112C154.192 43.112 156.576 42.216 158.336 40.424C160.096 38.632 160.976 35.976 160.976 32.456V13.4H165.728ZM188.622 21.32C191.086 21.32 193.294 21.864 195.246 22.952C197.198 24.04 198.718 25.56 199.806 27.512C200.926 29.464 201.486 31.72 201.486 34.28C201.486 36.84 200.926 39.112 199.806 41.096C198.718 43.048 197.198 44.568 195.246 45.656C193.294 46.744 191.086 47.288 188.622 47.288C186.798 47.288 185.118 46.936 183.582 46.232C182.078 45.528 180.798 44.504 179.742 43.16V56.312H175.134V21.56H179.55V25.592C180.574 24.184 181.87 23.128 183.438 22.424C185.006 21.688 186.734 21.32 188.622 21.32ZM188.238 43.256C189.87 43.256 191.326 42.888 192.606 42.152C193.918 41.384 194.942 40.328 195.678 38.984C196.446 37.608 196.83 36.04 196.83 34.28C196.83 32.52 196.446 30.968 195.678 29.624C194.942 28.248 193.918 27.192 192.606 26.456C191.326 25.72 189.87 25.352 188.238 25.352C186.638 25.352 185.182 25.736 183.87 26.504C182.59 27.24 181.566 28.28 180.798 29.624C180.062 30.968 179.694 32.52 179.694 34.28C179.694 36.04 180.062 37.608 180.798 38.984C181.534 40.328 182.558 41.384 183.87 42.152C185.182 42.888 186.638 43.256 188.238 43.256Z" fill="white"/>
<path fill-rule="evenodd" clip-rule="evenodd" d="M25 49.8838C36.2183 49.8838 45.3125 40.7896 45.3125 29.5713C45.3125 18.353 36.2183 9.25879 25 9.25879C13.7817 9.25879 4.6875 18.353 4.6875 29.5713C4.6875 40.7896 13.7817 49.8838 25 49.8838ZM26.5625 17.0713C26.5625 16.2083 25.8629 15.5088 25 15.5088C24.1371 15.5088 23.4375 16.2083 23.4375 17.0713V25.4046C23.4375 26.2676 24.1371 26.9671 25 26.9671C25.8629 26.9671 26.5625 26.2676 26.5625 25.4046V17.0713ZM19.6885 22.4872C20.3784 21.9689 20.5176 20.9895 19.9993 20.2995C19.481 19.6095 18.5015 19.4704 17.8115 19.9887C14.9059 22.1714 13.0208 25.6511 13.0208 29.5713C13.0208 36.1872 18.3841 41.5505 25 41.5505C31.6159 41.5505 36.9792 36.1872 36.9792 29.5713C36.9792 25.6517 35.095 22.1716 32.1896 19.9887C31.4996 19.4704 30.5202 19.6095 30.0018 20.2994C29.4835 20.9893 29.6225 21.9688 30.3125 22.4872C32.4661 24.1052 33.8542 26.6759 33.8542 29.5713C33.8542 34.4613 29.89 38.4255 25 38.4255C20.11 38.4255 16.1458 34.4613 16.1458 29.5713C16.1458 26.6759 17.5344 24.1054 19.6885 22.4872Z" fill="white"/>
</svg>
