<svg width="105" height="31" viewBox="0 0 105 31" fill="none" xmlns="http://www.w3.org/2000/svg">
<path d="M35.5192 9.45455H38.4759V22.7188C38.4759 23.6226 38.3043 24.3686 37.9613 24.9567C37.6183 25.5447 37.1228 25.9831 36.4748 26.2717C35.8268 26.5603 35.04 26.7045 34.1143 26.7045C34.0054 26.7045 33.9047 26.7018 33.8121 26.6964C33.7196 26.6964 33.6188 26.6937 33.5099 26.6882V24.2788C33.5916 24.2842 33.6651 24.2869 33.7305 24.2869C33.7958 24.2924 33.8639 24.2951 33.9347 24.2951C34.5009 24.2951 34.9066 24.1563 35.1516 23.8786C35.3967 23.6063 35.5192 23.2061 35.5192 22.6779V9.45455ZM36.9893 7.67401C36.5156 7.67401 36.11 7.51882 35.7724 7.20845C35.4402 6.89264 35.2741 6.5142 35.2741 6.07315C35.2741 5.62666 35.4402 5.24822 35.7724 4.93785C36.11 4.62204 36.5156 4.46413 36.9893 4.46413C37.4576 4.46413 37.8578 4.62204 38.19 4.93785C38.5276 5.24822 38.6964 5.62666 38.6964 6.07315C38.6964 6.5142 38.5276 6.89264 38.19 7.20845C37.8578 7.51882 37.4576 7.67401 36.9893 7.67401ZM52.3517 12.7706L49.6564 13.0646C49.5802 12.7924 49.4468 12.5365 49.2562 12.2969C49.0711 12.0573 48.8206 11.864 48.5048 11.717C48.189 11.57 47.8024 11.4964 47.345 11.4964C46.7297 11.4964 46.2124 11.6299 45.7931 11.8967C45.3793 12.1635 45.1751 12.5092 45.1806 12.9339C45.1751 13.2988 45.3085 13.5955 45.5808 13.8242C45.8585 14.0529 46.3159 14.2408 46.9529 14.3878L49.0929 14.8452C50.2799 15.1011 51.162 15.5067 51.7392 16.0621C52.3218 16.6175 52.6158 17.3445 52.6213 18.2429C52.6158 19.0324 52.3844 19.7294 51.927 20.3338C51.4751 20.9328 50.8462 21.401 50.0403 21.7386C49.2344 22.0762 48.3088 22.245 47.2633 22.245C45.7278 22.245 44.4918 21.9238 43.5552 21.2812C42.6187 20.6333 42.0605 19.7321 41.8808 18.5778L44.764 18.3001C44.8947 18.8664 45.1724 19.2938 45.5971 19.5824C46.0218 19.871 46.5745 20.0153 47.2551 20.0153C47.9576 20.0153 48.5211 19.871 48.9458 19.5824C49.376 19.2938 49.5911 18.9371 49.5911 18.5124C49.5911 18.1531 49.4522 17.8563 49.1745 17.6222C48.9023 17.388 48.4776 17.2083 47.9004 17.0831L45.7605 16.6339C44.5571 16.3834 43.6668 15.9614 43.0897 15.3679C42.5125 14.7689 42.2266 14.0121 42.2321 13.0973C42.2266 12.3241 42.4362 11.6544 42.861 11.0881C43.2911 10.5163 43.8874 10.0753 44.6497 9.76491C45.4174 9.4491 46.3023 9.29119 47.3041 9.29119C48.7743 9.29119 49.9314 9.60429 50.7754 10.2305C51.6248 10.8567 52.1503 11.7034 52.3517 12.7706ZM64.3511 26.7045V20.0234H64.2286C64.0761 20.3284 63.8556 20.6523 63.567 20.9954C63.2784 21.333 62.8973 21.6216 62.4235 21.8612C61.9498 22.1007 61.3536 22.2205 60.6348 22.2205C59.6493 22.2205 58.7672 21.9673 57.9885 21.4609C57.2099 20.9545 56.5946 20.2195 56.1426 19.2557C55.6907 18.2919 55.4647 17.1212 55.4647 15.7436C55.4647 14.3497 55.6934 13.1735 56.1508 12.2152C56.6136 11.2514 57.2371 10.5245 58.0212 10.0344C58.8053 9.53894 59.6792 9.29119 60.643 9.29119C61.3781 9.29119 61.9825 9.41643 62.4562 9.6669C62.9299 9.91193 63.3056 10.2087 63.5833 10.5572C63.861 10.9002 64.0761 11.2242 64.2286 11.5291H64.4083V9.45455H67.3159V26.7045H64.3511ZM61.4598 19.7947C62.0859 19.7947 62.6196 19.6259 63.0606 19.2884C63.5017 18.9453 63.8365 18.4689 64.0652 17.859C64.2939 17.2492 64.4083 16.5386 64.4083 15.7273C64.4083 14.916 64.2939 14.2108 64.0652 13.6119C63.842 13.0129 63.5098 12.5473 63.0688 12.2152C62.6332 11.883 62.0968 11.717 61.4598 11.717C60.8009 11.717 60.251 11.8885 59.8099 12.2315C59.3689 12.5746 59.0367 13.0483 58.8135 13.6527C58.5902 14.2571 58.4786 14.9486 58.4786 15.7273C58.4786 16.5114 58.5902 17.2111 58.8135 17.8263C59.0421 18.4362 59.377 18.9181 59.8181 19.272C60.2646 19.6205 60.8118 19.7947 61.4598 19.7947ZM79.2704 16.7237V9.45455H82.2271V22H79.3602V19.7702H79.2295C78.9464 20.4727 78.4808 21.0471 77.8329 21.4936C77.1904 21.9401 76.3981 22.1634 75.4561 22.1634C74.6339 22.1634 73.907 21.9809 73.2754 21.6161C72.6492 21.2459 72.1591 20.7095 71.8052 20.0071C71.4513 19.2992 71.2743 18.4444 71.2743 17.4425V9.45455H74.231V16.9851C74.231 17.7801 74.4488 18.4117 74.8844 18.88C75.32 19.3482 75.8917 19.5824 76.5996 19.5824C77.0352 19.5824 77.4572 19.4762 77.8656 19.2638C78.2739 19.0515 78.6088 18.7357 78.8702 18.3164C79.137 17.8917 79.2704 17.3608 79.2704 16.7237ZM86.1875 22V9.45455H89.1441V22H86.1875ZM87.674 7.67401C87.2057 7.67401 86.8028 7.51882 86.4652 7.20845C86.1276 6.89264 85.9588 6.5142 85.9588 6.07315C85.9588 5.62666 86.1276 5.24822 86.4652 4.93785C86.8028 4.62204 87.2057 4.46413 87.674 4.46413C88.1477 4.46413 88.5506 4.62204 88.8828 4.93785C89.2204 5.24822 89.3892 5.62666 89.3892 6.07315C89.3892 6.5142 89.2204 6.89264 88.8828 7.20845C88.5506 7.51882 88.1477 7.67401 87.674 7.67401ZM92.9412 22V20.1214L99.4099 12.011V11.9048H93.1535V9.45455H103.028V11.4719L96.8698 19.4435V19.5497H103.241V22H92.9412Z" fill="#1F1A1A"/>
<path d="M16.5312 17.983H20.5199L21.9602 19.7926L24.3977 22.5625L27.5739 26.4034H23.0312L20.7784 23.7812L19.2642 21.6023L16.5312 17.983ZM27.5369 15.5455C27.5369 17.6506 27.1276 19.4264 26.3089 20.8729C25.4903 22.3132 24.3854 23.4058 22.9943 24.1506C21.6032 24.8892 20.0521 25.2585 18.3409 25.2585C16.6174 25.2585 15.0601 24.8861 13.669 24.1413C12.2841 23.3904 11.1823 22.2947 10.3636 20.8544C9.55114 19.4079 9.14489 17.6383 9.14489 15.5455C9.14489 13.4403 9.55114 11.6676 10.3636 10.2273C11.1823 8.78078 12.2841 7.68821 13.669 6.94957C15.0601 6.20478 16.6174 5.83239 18.3409 5.83239C20.0521 5.83239 21.6032 6.20478 22.9943 6.94957C24.3854 7.68821 25.4903 8.78078 26.3089 10.2273C27.1276 11.6676 27.5369 13.4403 27.5369 15.5455ZM22.2557 15.5455C22.2557 14.4129 22.1049 13.4588 21.8033 12.6832C21.5078 11.9015 21.0677 11.3106 20.483 10.9105C19.9044 10.5043 19.1903 10.3011 18.3409 10.3011C17.4915 10.3011 16.7744 10.5043 16.1896 10.9105C15.611 11.3106 15.1709 11.9015 14.8693 12.6832C14.5739 13.4588 14.4261 14.4129 14.4261 15.5455C14.4261 16.678 14.5739 17.6352 14.8693 18.4169C15.1709 19.1925 15.611 19.7834 16.1896 20.1896C16.7744 20.5897 17.4915 20.7898 18.3409 20.7898C19.1903 20.7898 19.9044 20.5897 20.483 20.1896C21.0677 19.7834 21.5078 19.1925 21.8033 18.4169C22.1049 17.6352 22.2557 16.678 22.2557 15.5455Z" fill="#FD366E"/>
<path d="M9.01136 6.09091H14.071V19.054C14.0649 20.285 13.754 21.3684 13.1385 22.304C12.5291 23.2334 11.6858 23.9598 10.6087 24.483C9.53764 25 8.3035 25.2585 6.90625 25.2585C5.69366 25.2585 4.5857 25.0492 3.58239 24.6307C2.57907 24.206 1.77888 23.5412 1.18182 22.6364C0.584754 21.7254 0.289299 20.5436 0.295455 19.0909H5.42898C5.44744 19.5649 5.52746 19.965 5.66903 20.2912C5.81676 20.6174 6.01989 20.8636 6.27841 21.0298C6.54309 21.1899 6.86316 21.2699 7.23864 21.2699C7.62027 21.2699 7.94034 21.1868 8.19886 21.0206C8.46354 20.8544 8.66359 20.6082 8.79901 20.282C8.93442 19.9496 9.00521 19.5402 9.01136 19.054V6.09091Z" fill="#FD366E"/>
</svg>
