<svg width="238" height="87" viewBox="0 0 238 87" fill="none" xmlns="http://www.w3.org/2000/svg">
<path d="M141.78 44.132H145.812V59H142.116V57.026C139.96 58.566 137.23 59.336 133.926 59.336C131.266 59.336 128.788 58.748 126.492 57.572C124.224 56.396 122.404 54.688 121.032 52.448C119.688 50.18 119.016 47.506 119.016 44.426C119.016 41.514 119.688 38.91 121.032 36.614C122.404 34.318 124.28 32.526 126.66 31.238C129.068 29.922 131.77 29.264 134.766 29.264C137.118 29.264 139.246 29.656 141.15 30.44C143.082 31.196 144.72 32.316 146.064 33.8L143.46 36.404C141.108 34.136 138.266 33.002 134.934 33.002C132.694 33.002 130.678 33.492 128.886 34.472C127.122 35.452 125.736 36.81 124.728 38.546C123.72 40.282 123.216 42.242 123.216 44.426C123.216 46.75 123.72 48.766 124.728 50.474C125.764 52.182 127.122 53.484 128.802 54.38C130.482 55.248 132.302 55.682 134.262 55.682C135.634 55.682 136.964 55.458 138.252 55.01C139.568 54.534 140.744 53.848 141.78 52.952V44.132ZM162.799 59.252C160.587 59.252 158.599 58.762 156.835 57.782C155.071 56.802 153.685 55.458 152.677 53.75C151.697 52.014 151.207 50.054 151.207 47.87C151.207 45.686 151.697 43.74 152.677 42.032C153.685 40.296 155.071 38.952 156.835 38C158.599 37.02 160.587 36.53 162.799 36.53C165.011 36.53 166.985 37.02 168.721 38C170.485 38.952 171.857 40.296 172.837 42.032C173.845 43.74 174.349 45.686 174.349 47.87C174.349 50.054 173.845 52.014 172.837 53.75C171.857 55.458 170.485 56.802 168.721 57.782C166.985 58.762 165.011 59.252 162.799 59.252ZM162.799 55.724C164.227 55.724 165.501 55.402 166.621 54.758C167.769 54.086 168.665 53.162 169.309 51.986C169.953 50.782 170.275 49.41 170.275 47.87C170.275 46.33 169.953 44.972 169.309 43.796C168.665 42.592 167.769 41.668 166.621 41.024C165.501 40.38 164.227 40.058 162.799 40.058C161.371 40.058 160.083 40.38 158.935 41.024C157.815 41.668 156.919 42.592 156.247 43.796C155.603 44.972 155.281 46.33 155.281 47.87C155.281 49.41 155.603 50.782 156.247 51.986C156.919 53.162 157.815 54.086 158.935 54.758C160.083 55.402 161.371 55.724 162.799 55.724ZM204.262 29.6V59H200.23V54.842C198.242 57.838 195.05 59.336 190.654 59.336C187.154 59.336 184.41 58.272 182.422 56.144C180.462 54.016 179.482 50.978 179.482 47.03V29.6H183.682V46.904C183.682 49.732 184.382 51.888 185.782 53.372C187.182 54.856 189.1 55.598 191.536 55.598C194.168 55.598 196.254 54.814 197.794 53.246C199.334 51.678 200.104 49.354 200.104 46.274V29.6H204.262ZM224.294 36.53C226.45 36.53 228.382 37.006 230.09 37.958C231.798 38.91 233.128 40.24 234.08 41.948C235.06 43.656 235.55 45.63 235.55 47.87C235.55 50.11 235.06 52.098 234.08 53.834C233.128 55.542 231.798 56.872 230.09 57.824C228.382 58.776 226.45 59.252 224.294 59.252C222.698 59.252 221.228 58.944 219.884 58.328C218.568 57.712 217.448 56.816 216.524 55.64V67.148H212.492V36.74H216.356V40.268C217.252 39.036 218.386 38.112 219.758 37.496C221.13 36.852 222.642 36.53 224.294 36.53ZM223.958 55.724C225.386 55.724 226.66 55.402 227.78 54.758C228.928 54.086 229.824 53.162 230.468 51.986C231.14 50.782 231.476 49.41 231.476 47.87C231.476 46.33 231.14 44.972 230.468 43.796C229.824 42.592 228.928 41.668 227.78 41.024C226.66 40.38 225.386 40.058 223.958 40.058C222.558 40.058 221.284 40.394 220.136 41.066C219.016 41.71 218.12 42.62 217.448 43.796C216.804 44.972 216.482 46.33 216.482 47.87C216.482 49.41 216.804 50.782 217.448 51.986C218.092 53.162 218.988 54.086 220.136 54.758C221.284 55.402 222.558 55.724 223.958 55.724Z" fill="#1C1D1D"/>
<rect width="87" height="87" rx="12" fill="#F2F2F2" fill-opacity="0.5"/>
<path fill-rule="evenodd" clip-rule="evenodd" d="M43.3125 63.625C54.5308 63.625 63.625 54.5308 63.625 43.3125C63.625 32.0942 54.5308 23 43.3125 23C32.0942 23 23 32.0942 23 43.3125C23 54.5308 32.0942 63.625 43.3125 63.625ZM44.875 30.8125C44.875 29.9496 44.1754 29.25 43.3125 29.25C42.4496 29.25 41.75 29.9496 41.75 30.8125V39.1458C41.75 40.0088 42.4496 40.7083 43.3125 40.7083C44.1754 40.7083 44.875 40.0088 44.875 39.1458V30.8125ZM38.001 36.2284C38.6909 35.7102 38.8301 34.7307 38.3118 34.0407C37.7935 33.3507 36.814 33.2116 36.124 33.7299C33.2184 35.9126 31.3333 39.3923 31.3333 43.3125C31.3333 49.9284 36.6966 55.2917 43.3125 55.2917C49.9284 55.2917 55.2917 49.9284 55.2917 43.3125C55.2917 39.3929 53.4075 35.9129 50.5021 33.73C49.8121 33.2116 48.8327 33.3507 48.3143 34.0406C47.796 34.7305 47.935 35.71 48.625 36.2284C50.7786 37.8464 52.1667 40.4171 52.1667 43.3125C52.1667 48.2025 48.2025 52.1667 43.3125 52.1667C38.4225 52.1667 34.4583 48.2025 34.4583 43.3125C34.4583 40.4171 35.8469 37.8466 38.001 36.2284Z" fill="#1C1D1D"/>
</svg>
