<svg width="205" height="59" viewBox="0 0 205 59" fill="none" xmlns="http://www.w3.org/2000/svg">
<path d="M94.9037 30.008H99.5117V47H95.2877V44.744C92.8237 46.504 89.7037 47.384 85.9277 47.384C82.8877 47.384 80.0557 46.712 77.4317 45.368C74.8397 44.024 72.7597 42.072 71.1917 39.512C69.6557 36.92 68.8877 33.864 68.8877 30.344C68.8877 27.016 69.6557 24.04 71.1917 21.416C72.7597 18.792 74.9037 16.744 77.6237 15.272C80.3757 13.768 83.4637 13.016 86.8877 13.016C89.5757 13.016 92.0077 13.464 94.1837 14.36C96.3917 15.224 98.2637 16.504 99.7997 18.2L96.8237 21.176C94.1357 18.584 90.8877 17.288 87.0797 17.288C84.5197 17.288 82.2157 17.848 80.1677 18.968C78.1517 20.088 76.5677 21.64 75.4157 23.624C74.2637 25.608 73.6877 27.848 73.6877 30.344C73.6877 33 74.2637 35.304 75.4157 37.256C76.5997 39.208 78.1517 40.696 80.0717 41.72C81.9917 42.712 84.0717 43.208 86.3117 43.208C87.8797 43.208 89.3997 42.952 90.8717 42.44C92.3757 41.896 93.7197 41.112 94.9037 40.088V30.008ZM118.926 47.288C116.398 47.288 114.126 46.728 112.11 45.608C110.094 44.488 108.51 42.952 107.358 41C106.238 39.016 105.678 36.776 105.678 34.28C105.678 31.784 106.238 29.56 107.358 27.608C108.51 25.624 110.094 24.088 112.11 23C114.126 21.88 116.398 21.32 118.926 21.32C121.454 21.32 123.71 21.88 125.694 23C127.71 24.088 129.278 25.624 130.398 27.608C131.55 29.56 132.126 31.784 132.126 34.28C132.126 36.776 131.55 39.016 130.398 41C129.278 42.952 127.71 44.488 125.694 45.608C123.71 46.728 121.454 47.288 118.926 47.288ZM118.926 43.256C120.558 43.256 122.014 42.888 123.294 42.152C124.606 41.384 125.63 40.328 126.366 38.984C127.102 37.608 127.47 36.04 127.47 34.28C127.47 32.52 127.102 30.968 126.366 29.624C125.63 28.248 124.606 27.192 123.294 26.456C122.014 25.72 120.558 25.352 118.926 25.352C117.294 25.352 115.822 25.72 114.51 26.456C113.23 27.192 112.206 28.248 111.438 29.624C110.702 30.968 110.334 32.52 110.334 34.28C110.334 36.04 110.702 37.608 111.438 38.984C112.206 40.328 113.23 41.384 114.51 42.152C115.822 42.888 117.294 43.256 118.926 43.256ZM166.312 13.4V47H161.704V42.248C159.432 45.672 155.784 47.384 150.76 47.384C146.76 47.384 143.624 46.168 141.352 43.736C139.112 41.304 137.992 37.832 137.992 33.32V13.4H142.792V33.176C142.792 36.408 143.592 38.872 145.192 40.568C146.792 42.264 148.984 43.112 151.768 43.112C154.776 43.112 157.16 42.216 158.92 40.424C160.68 38.632 161.56 35.976 161.56 32.456V13.4H166.312ZM189.205 21.32C191.669 21.32 193.877 21.864 195.829 22.952C197.781 24.04 199.301 25.56 200.389 27.512C201.509 29.464 202.069 31.72 202.069 34.28C202.069 36.84 201.509 39.112 200.389 41.096C199.301 43.048 197.781 44.568 195.829 45.656C193.877 46.744 191.669 47.288 189.205 47.288C187.381 47.288 185.701 46.936 184.165 46.232C182.661 45.528 181.381 44.504 180.325 43.16V56.312H175.717V21.56H180.133V25.592C181.157 24.184 182.453 23.128 184.021 22.424C185.589 21.688 187.317 21.32 189.205 21.32ZM188.821 43.256C190.453 43.256 191.909 42.888 193.189 42.152C194.501 41.384 195.525 40.328 196.261 38.984C197.029 37.608 197.413 36.04 197.413 34.28C197.413 32.52 197.029 30.968 196.261 29.624C195.525 28.248 194.501 27.192 193.189 26.456C191.909 25.72 190.453 25.352 188.821 25.352C187.221 25.352 185.765 25.736 184.453 26.504C183.173 27.24 182.149 28.28 181.381 29.624C180.645 30.968 180.277 32.52 180.277 34.28C180.277 36.04 180.645 37.608 181.381 38.984C182.117 40.328 183.141 41.384 184.453 42.152C185.765 42.888 187.221 43.256 188.821 43.256Z" fill="#1C1D1D"/>
<path fill-rule="evenodd" clip-rule="evenodd" d="M25.5837 49.8838C36.802 49.8838 45.8962 40.7896 45.8962 29.5713C45.8962 18.353 36.802 9.25879 25.5837 9.25879C14.3655 9.25879 5.27124 18.353 5.27124 29.5713C5.27124 40.7896 14.3655 49.8838 25.5837 49.8838ZM27.1462 17.0713C27.1462 16.2083 26.4467 15.5088 25.5837 15.5088C24.7208 15.5088 24.0212 16.2083 24.0212 17.0713V25.4046C24.0212 26.2676 24.7208 26.9671 25.5837 26.9671C26.4467 26.9671 27.1462 26.2676 27.1462 25.4046V17.0713ZM20.2722 22.4872C20.9622 21.9689 21.1013 20.9895 20.583 20.2995C20.0647 19.6095 19.0852 19.4704 18.3953 19.9887C15.4896 22.1714 13.6046 25.6511 13.6046 29.5713C13.6046 36.1872 18.9678 41.5505 25.5837 41.5505C32.1996 41.5505 37.5629 36.1872 37.5629 29.5713C37.5629 25.6517 35.6787 22.1716 32.7733 19.9887C32.0834 19.4704 31.1039 19.6095 30.5855 20.2994C30.0672 20.9893 30.2063 21.9688 30.8962 22.4872C33.0498 24.1052 34.4379 26.6759 34.4379 29.5713C34.4379 34.4613 30.4738 38.4255 25.5837 38.4255C20.6937 38.4255 16.7296 34.4613 16.7296 29.5713C16.7296 26.6759 18.1181 24.1054 20.2722 22.4872Z" fill="#1C1D1D"/>
</svg>
