<svg width="912" height="890" viewBox="0 0 912 890" fill="none" xmlns="http://www.w3.org/2000/svg">
<g filter="url(#filter0_bd_1733_473)">
<rect x="70" y="131" width="220" height="220" rx="110" fill="#F5F5F5"/>
</g>
<path d="M215.442 223.737C214.301 223.344 213.119 222.972 211.901 222.621C212.101 221.804 212.285 220.998 212.448 220.206C215.129 207.194 213.376 196.712 207.391 193.261C201.653 189.952 192.268 193.402 182.79 201.651C181.878 202.444 180.965 203.284 180.051 204.164C179.442 203.582 178.834 203.019 178.228 202.481C168.295 193.661 158.338 189.944 152.359 193.405C146.626 196.724 144.929 206.578 147.341 218.909C147.574 220.1 147.847 221.316 148.155 222.553C146.746 222.953 145.385 223.379 144.084 223.833C132.438 227.893 125 234.257 125 240.857C125 247.674 132.984 254.512 145.114 258.658C146.072 258.985 147.065 259.295 148.089 259.588C147.756 260.926 147.467 262.237 147.225 263.515C144.924 275.632 146.721 285.253 152.438 288.551C158.344 291.957 168.256 288.456 177.908 280.02C178.67 279.353 179.436 278.645 180.203 277.904C181.197 278.861 182.189 279.767 183.177 280.617C192.525 288.662 201.758 291.91 207.471 288.603C213.371 285.188 215.288 274.852 212.799 262.277C212.609 261.317 212.388 260.336 212.139 259.337C212.835 259.131 213.519 258.919 214.185 258.698C226.795 254.52 235 247.766 235 240.857C235 234.233 227.323 227.827 215.442 223.737ZM212.707 254.238C212.105 254.437 211.488 254.629 210.859 254.816C209.467 250.409 207.588 245.722 205.289 240.88C207.483 236.154 209.29 231.527 210.643 227.149C211.768 227.474 212.86 227.818 213.912 228.18C224.092 231.684 230.301 236.865 230.301 240.857C230.301 245.11 223.595 250.63 212.707 254.238ZM208.189 263.19C209.29 268.75 209.447 273.778 208.718 277.708C208.063 281.239 206.745 283.594 205.116 284.537C201.65 286.543 194.236 283.935 186.241 277.055C185.325 276.266 184.402 275.424 183.475 274.533C186.575 271.143 189.673 267.202 192.696 262.826C198.014 262.354 203.038 261.582 207.594 260.529C207.818 261.434 208.017 262.322 208.189 263.19ZM162.501 284.19C159.115 285.386 156.417 285.42 154.786 284.48C151.317 282.479 149.874 274.754 151.842 264.391C152.067 263.205 152.335 261.986 152.645 260.74C157.151 261.736 162.138 262.453 167.468 262.885C170.512 267.168 173.699 271.104 176.911 274.551C176.209 275.229 175.51 275.874 174.815 276.481C170.547 280.212 166.271 282.859 162.501 284.19ZM146.634 254.212C141.27 252.378 136.841 249.996 133.805 247.396C131.076 245.059 129.699 242.74 129.699 240.857C129.699 236.852 135.671 231.743 145.63 228.27C146.839 227.849 148.104 227.452 149.417 227.079C150.793 231.557 152.599 236.238 154.778 240.972C152.571 245.776 150.739 250.532 149.349 255.062C148.413 254.793 147.507 254.51 146.634 254.212ZM151.953 218.006C149.886 207.442 151.259 199.472 154.714 197.472C158.394 195.341 166.531 198.379 175.108 205.995C175.656 206.481 176.207 206.991 176.759 207.518C173.563 210.95 170.405 214.857 167.388 219.114C162.214 219.594 157.262 220.364 152.709 221.395C152.423 220.244 152.169 219.113 151.953 218.006ZM199.402 229.723C198.314 227.843 197.196 226.007 196.057 224.222C199.567 224.665 202.929 225.254 206.087 225.975C205.139 229.013 203.958 232.19 202.567 235.447C201.569 233.553 200.513 231.643 199.402 229.723ZM180.052 210.876C182.22 213.224 184.391 215.846 186.526 218.691C184.374 218.589 182.196 218.536 180 218.536C177.825 218.536 175.663 218.588 173.525 218.688C175.662 215.87 177.851 213.252 180.052 210.876ZM160.579 229.755C159.492 231.641 158.456 233.54 157.474 235.444C156.105 232.198 154.935 229.007 153.978 225.925C157.117 225.223 160.464 224.649 163.951 224.213C162.796 226.015 161.669 227.865 160.579 229.755V229.755ZM164.051 257.836C160.448 257.434 157.051 256.89 153.914 256.207C154.885 253.07 156.082 249.811 157.479 246.496C158.464 248.397 159.504 250.298 160.598 252.187H160.598C161.712 254.112 162.866 255.998 164.051 257.836ZM180.182 271.17C177.955 268.767 175.734 266.108 173.564 263.249C175.67 263.332 177.818 263.374 180 263.374C182.242 263.374 184.459 263.324 186.64 263.227C184.498 266.137 182.335 268.8 180.182 271.17ZM202.611 246.327C204.082 249.678 205.321 252.92 206.305 256.003C203.116 256.731 199.672 257.317 196.044 257.752C197.186 255.943 198.313 254.076 199.421 252.155C200.541 250.212 201.605 248.266 202.611 246.327ZM195.35 249.807C193.631 252.789 191.866 255.635 190.073 258.321C186.809 258.555 183.437 258.675 180 258.675C176.577 258.675 173.247 258.569 170.041 258.361C168.176 255.639 166.373 252.784 164.664 249.833H164.664C162.96 246.89 161.392 243.922 159.971 240.97C161.392 238.012 162.956 235.04 164.65 232.102L164.65 232.103C166.349 229.157 168.136 226.317 169.984 223.612C173.255 223.365 176.61 223.235 180 223.235H180C183.406 223.235 186.764 223.365 190.035 223.615C191.854 226.3 193.63 229.131 195.335 232.078C197.06 235.057 198.644 238.008 200.077 240.903C198.648 243.848 197.068 246.829 195.35 249.807ZM205.044 197.332C208.728 199.456 210.16 208.023 207.846 219.257C207.698 219.974 207.532 220.704 207.351 221.444C202.788 220.391 197.832 219.608 192.644 219.121C189.621 214.817 186.489 210.903 183.345 207.516C184.19 206.703 185.034 205.927 185.875 205.196C193.996 198.128 201.586 195.338 205.044 197.332ZM180 231.035C185.425 231.035 189.823 235.432 189.823 240.857C189.823 246.282 185.425 250.68 180 250.68C174.575 250.68 170.177 246.282 170.177 240.857C170.177 235.432 174.575 231.035 180 231.035Z" fill="#A8A8AC"/>
<g filter="url(#filter1_bd_1733_473)">
<rect x="345" width="220" height="220" rx="110" fill="#F5F5F5"/>
</g>
<g clip-path="url(#clip0_1733_473)">
<path fill-rule="evenodd" clip-rule="evenodd" d="M400 55H510V165H400V55ZM428.923 146.924C431.36 152.092 436.16 156.374 444.429 156.374C453.585 156.374 459.861 151.501 459.861 140.794V105.501H449.524V140.648C449.524 145.817 447.383 147.145 443.986 147.145C440.442 147.145 438.965 144.709 437.341 141.83L428.923 146.924ZM473.893 140.943L465.476 145.816C468.503 151.798 474.706 156.375 484.305 156.375C494.125 156.375 501.435 151.281 501.435 141.977C501.435 133.338 496.488 129.499 487.701 125.733L485.117 124.625C480.687 122.705 478.767 121.45 478.767 118.348C478.767 115.838 480.687 113.918 483.714 113.918C486.668 113.918 488.587 115.173 490.359 118.348L498.408 113.18C495.012 107.199 490.286 104.91 483.714 104.91C474.484 104.91 468.577 110.817 468.577 118.57C468.577 126.988 473.524 130.975 480.983 134.15L483.566 135.258C488.292 137.325 491.098 138.58 491.098 142.124C491.098 145.078 488.366 147.219 484.083 147.219C478.989 147.219 476.109 144.561 473.893 140.943Z" fill="#A8A8AD"/>
</g>
<g filter="url(#filter2_bd_1733_473)">
<rect x="180" y="666" width="220" height="220" rx="110" fill="#F5F5F5"/>
</g>
<path d="M290 742.914C275.333 742.914 266.167 750.247 262.5 764.914C268 757.581 274.417 754.831 281.75 756.664C285.934 757.71 288.925 760.745 292.235 764.106C297.627 769.579 303.868 775.914 317.5 775.914C332.167 775.914 341.333 768.581 345 753.914C339.5 761.247 333.083 763.997 325.75 762.164C321.566 761.118 318.575 758.083 315.265 754.723C309.873 749.249 303.632 742.914 290 742.914ZM262.5 775.914C247.833 775.914 238.667 783.247 235 797.914C240.5 790.581 246.917 787.831 254.25 789.664C258.434 790.71 261.425 793.745 264.735 797.106C270.127 802.579 276.368 808.914 290 808.914C304.667 808.914 313.833 801.581 317.5 786.914C312 794.247 305.583 796.997 298.25 795.164C294.066 794.118 291.075 791.083 287.765 787.723C282.373 782.249 276.132 775.914 262.5 775.914Z" fill="url(#paint0_linear_1733_473)"/>
<g filter="url(#filter3_bd_1733_473)">
<rect y="425" width="220" height="220" rx="110" fill="#F5F5F5"/>
</g>
<path fill-rule="evenodd" clip-rule="evenodd" d="M110.097 588.512C108.62 588.512 107.241 588.118 105.96 587.428L92.859 579.646C90.8889 578.563 91.874 578.169 92.465 577.972C95.1246 577.085 95.6172 576.888 98.3753 575.312C98.6708 575.115 99.0648 575.213 99.3604 575.41L109.408 581.419C109.802 581.616 110.294 581.616 110.59 581.419L149.893 558.665C150.287 558.468 150.484 558.074 150.484 557.581V512.17C150.484 511.678 150.287 511.284 149.893 511.087L110.59 488.431C110.196 488.234 109.703 488.234 109.408 488.431L70.1044 511.087C69.7104 511.284 69.5134 511.776 69.5134 512.17V557.581C69.5134 557.975 69.7104 558.468 70.1044 558.665L80.8414 564.87C86.6532 567.826 90.2979 564.378 90.2979 560.93V516.111C90.2979 515.52 90.7904 514.928 91.48 514.928H96.5037C97.0947 514.928 97.6858 515.421 97.6858 516.111V560.93C97.6858 568.712 93.4501 573.243 86.0622 573.243C83.7966 573.243 82.0235 573.243 76.9997 570.781L66.6567 564.87C64.0956 563.393 62.5195 560.635 62.5195 557.68V512.269C62.5195 509.314 64.0956 506.556 66.6567 505.078L105.96 482.323C108.423 480.944 111.772 480.944 114.235 482.323L153.538 505.078C156.099 506.556 157.675 509.314 157.675 512.269V557.68C157.675 560.635 156.099 563.393 153.538 564.87L114.235 587.625C112.954 588.216 111.476 588.512 110.097 588.512ZM122.213 557.286C104.975 557.286 101.429 549.405 101.429 542.707C101.429 542.116 101.921 541.525 102.611 541.525H107.733C108.324 541.525 108.817 541.919 108.817 542.51C109.605 547.731 111.87 550.292 122.312 550.292C130.586 550.292 134.133 548.42 134.133 543.987C134.133 541.426 133.148 539.555 120.243 538.274C109.506 537.191 102.808 534.826 102.808 526.257C102.808 518.278 109.506 513.549 120.736 513.549C133.345 513.549 139.55 517.884 140.338 527.34C140.338 527.636 140.24 527.931 140.043 528.227C139.846 528.424 139.55 528.621 139.255 528.621H134.133C133.64 528.621 133.148 528.227 133.049 527.734C131.867 522.316 128.813 520.543 120.736 520.543C111.673 520.543 110.59 523.695 110.59 526.06C110.59 528.916 111.87 529.803 124.085 531.379C136.201 532.955 141.914 535.22 141.914 543.692C141.816 552.36 134.724 557.286 122.213 557.286Z" fill="#A8A8AD"/>
<g filter="url(#filter4_bd_1733_473)">
<rect x="689" y="425" width="220" height="220" rx="110" fill="#F5F5F5"/>
</g>
<path d="M818.892 554.099C822.698 553.712 825.585 550.486 825.454 546.616C825.323 542.745 822.042 539.648 818.105 539.648H817.842C813.774 539.778 810.625 543.132 810.756 547.132C810.887 549.067 811.674 550.744 812.855 551.905C808.394 560.55 801.57 566.872 791.334 572.162C784.378 575.774 777.161 577.065 769.943 576.162C764.038 575.387 759.445 572.807 756.557 568.549C752.358 562.227 751.965 555.389 755.508 548.551C758.001 543.648 761.938 540.035 764.431 538.229C763.906 536.552 763.119 533.714 762.725 531.649C743.697 545.197 745.665 563.518 751.44 572.162C755.77 578.613 764.563 582.613 774.274 582.613C776.898 582.613 779.523 582.355 782.148 581.71C798.945 578.484 811.675 568.678 818.892 554.099V554.099ZM841.989 538.1C832.015 526.617 817.318 520.295 800.52 520.295H798.42C797.239 517.973 794.746 516.425 791.99 516.425H791.727C787.659 516.554 784.51 519.908 784.641 523.908C784.772 527.779 788.053 530.875 791.99 530.875H792.252C795.139 530.746 797.633 528.94 798.683 526.488H801.045C811.018 526.488 820.467 529.327 828.997 534.875C835.559 539.132 840.283 544.681 842.907 551.389C845.138 556.808 845.007 562.098 842.645 566.614C838.971 573.452 832.803 577.194 824.666 577.194C819.417 577.194 814.43 575.645 811.806 574.484C810.362 575.774 807.737 577.839 805.9 579.129C811.543 581.709 817.318 583.129 822.829 583.129C835.427 583.129 844.745 576.29 848.288 569.453C852.094 561.969 851.831 549.067 841.989 538.1V538.1ZM775.324 556.292C775.455 560.163 778.736 563.259 782.672 563.259H782.935C787.003 563.13 790.153 559.775 790.021 555.776C789.89 551.905 786.609 548.809 782.672 548.809H782.41C782.148 548.809 781.754 548.809 781.492 548.937C776.111 540.164 773.88 530.617 774.668 520.295C775.192 512.554 777.817 505.845 782.41 500.296C786.216 495.523 793.565 493.2 798.552 493.072C812.462 492.813 818.367 509.844 818.761 516.682C820.467 517.069 823.354 517.973 825.323 518.618C823.748 497.717 810.625 486.879 798.027 486.879C786.216 486.879 775.324 495.265 770.993 507.651C764.956 524.166 768.893 540.035 776.242 552.551C775.586 553.453 775.192 554.873 775.324 556.292V556.292Z" fill="#9E9EA4"/>
<g filter="url(#filter5_bd_1733_473)">
<rect x="483" y="666" width="220" height="220" rx="110" fill="#F5F5F5"/>
</g>
<path d="M589.398 721.03C589.161 721.051 588.409 721.126 587.731 721.18C572.108 722.589 557.473 731.017 548.204 743.972C543.043 751.176 539.742 759.347 538.495 768.001C538.054 771.022 538 771.915 538 776.011C538 780.107 538.054 780.999 538.495 784.02C541.484 804.673 556.183 822.026 576.118 828.455C579.688 829.605 583.452 830.39 587.731 830.863C589.398 831.046 596.602 831.046 598.269 830.863C605.656 830.046 611.914 828.218 618.086 825.068C619.032 824.584 619.215 824.455 619.086 824.348C619 824.283 614.968 818.875 610.129 812.339L601.333 800.459L590.312 784.149C584.247 775.183 579.258 767.851 579.215 767.851C579.172 767.84 579.129 775.086 579.108 783.934C579.075 799.427 579.065 800.05 578.871 800.416C578.591 800.943 578.376 801.158 577.925 801.394C577.581 801.566 577.28 801.598 575.656 801.598H573.796L573.301 801.287C572.978 801.082 572.742 800.814 572.581 800.502L572.355 800.018L572.376 778.462L572.409 756.895L572.742 756.476C572.914 756.25 573.28 755.96 573.538 755.82C573.978 755.605 574.151 755.584 576.011 755.584C578.204 755.584 578.57 755.67 579.14 756.293C579.301 756.465 585.269 765.453 592.409 776.28C599.548 787.106 609.312 801.889 614.108 809.146L622.817 822.337L623.258 822.047C627.161 819.51 631.29 815.897 634.559 812.134C641.516 804.146 646 794.406 647.505 784.02C647.946 780.999 648 780.107 648 776.011C648 771.915 647.946 771.022 647.505 768.001C644.516 747.348 629.817 729.996 609.882 723.567C606.366 722.427 602.624 721.642 598.43 721.169C597.398 721.062 590.29 720.944 589.398 721.03ZM611.914 754.294C612.43 754.552 612.849 755.046 613 755.562C613.086 755.842 613.108 761.819 613.086 775.29L613.054 794.621L609.645 789.396L606.226 784.171V770.119C606.226 761.034 606.269 755.928 606.333 755.68C606.505 755.078 606.882 754.605 607.398 754.326C607.839 754.1 608 754.079 609.688 754.079C611.28 754.079 611.559 754.1 611.914 754.294Z" fill="#A8A8AD"/>
<g filter="url(#filter6_d_1733_473)">
<g filter="url(#filter7_b_1733_473)">
<rect x="610" y="139" width="220" height="220" rx="110" fill="#F5F5F5"/>
</g>
<g clip-path="url(#clip1_1733_473)">
<path fill-rule="evenodd" clip-rule="evenodd" d="M766.406 194H673.594C668.848 194 665 197.848 665 202.594V295.406C665 300.152 668.848 304 673.594 304H766.406C771.152 304 775 300.152 775 295.406V202.594C775 197.848 771.152 194 766.406 194ZM729.676 292.01V280.142C731.828 281.947 734.167 283.3 736.691 284.203C739.215 285.105 741.764 285.557 744.337 285.557C745.847 285.557 747.164 285.42 748.29 285.148C749.416 284.876 750.357 284.499 751.111 284.017C751.866 283.535 752.429 282.966 752.8 282.312C753.171 281.656 753.357 280.945 753.357 280.179C753.357 279.14 753.06 278.213 752.466 277.397C751.872 276.581 751.062 275.827 750.035 275.135C749.008 274.443 747.789 273.775 746.379 273.133C744.968 272.489 743.446 271.834 741.813 271.167C737.656 269.436 734.557 267.322 732.516 264.825C730.474 262.328 729.453 259.311 729.453 255.776C729.453 253.006 730.01 250.627 731.123 248.636C732.237 246.646 733.753 245.008 735.67 243.722C737.588 242.437 739.809 241.491 742.333 240.885C744.857 240.279 747.529 239.977 750.35 239.977C753.122 239.977 755.578 240.143 757.718 240.477C759.858 240.811 761.832 241.324 763.638 242.016V253.105C762.747 252.487 761.776 251.943 760.724 251.474C759.673 251.004 758.59 250.614 757.477 250.305C756.363 249.996 755.256 249.767 754.155 249.619C753.054 249.471 752.008 249.397 751.018 249.397C749.657 249.397 748.42 249.526 747.307 249.786C746.193 250.046 745.253 250.41 744.486 250.88C743.719 251.35 743.124 251.912 742.704 252.568C742.283 253.223 742.073 253.958 742.073 254.774C742.073 255.664 742.308 256.462 742.778 257.166C743.248 257.871 743.916 258.539 744.783 259.169C745.648 259.8 746.7 260.418 747.937 261.024C749.175 261.629 750.573 262.253 752.132 262.897C754.26 263.786 756.172 264.732 757.867 265.733C759.561 266.735 761.015 267.866 762.228 269.127C763.44 270.388 764.368 271.828 765.011 273.447C765.655 275.067 765.977 276.952 765.977 279.103C765.977 282.07 765.414 284.561 764.288 286.576C763.162 288.591 761.634 290.223 759.704 291.472C757.774 292.72 755.528 293.617 752.967 294.161C750.406 294.705 747.702 294.977 744.857 294.977C741.937 294.977 739.159 294.729 736.524 294.235C733.889 293.74 731.606 292.999 729.676 292.01ZM725.156 250.608H709.895V294.117H697.804V250.608H682.617V240.836H725.156V250.608Z" fill="#A8A8AC"/>
</g>
</g>
<defs>
<filter id="filter0_bd_1733_473" x="20" y="81" width="320" height="320" filterUnits="userSpaceOnUse" color-interpolation-filters="sRGB">
<feFlood flood-opacity="0" result="BackgroundImageFix"/>
<feGaussianBlur in="BackgroundImageFix" stdDeviation="25"/>
<feComposite in2="SourceAlpha" operator="in" result="effect1_backgroundBlur_1733_473"/>
<feColorMatrix in="SourceAlpha" type="matrix" values="0 0 0 0 0 0 0 0 0 0 0 0 0 0 0 0 0 0 127 0" result="hardAlpha"/>
<feOffset dx="5" dy="1"/>
<feComposite in2="hardAlpha" operator="out"/>
<feColorMatrix type="matrix" values="0 0 0 0 0.509554 0 0 0 0 0.509554 0 0 0 0 0.509554 0 0 0 0.25 0"/>
<feBlend mode="normal" in2="effect1_backgroundBlur_1733_473" result="effect2_dropShadow_1733_473"/>
<feBlend mode="normal" in="SourceGraphic" in2="effect2_dropShadow_1733_473" result="shape"/>
</filter>
<filter id="filter1_bd_1733_473" x="295" y="-50" width="320" height="320" filterUnits="userSpaceOnUse" color-interpolation-filters="sRGB">
<feFlood flood-opacity="0" result="BackgroundImageFix"/>
<feGaussianBlur in="BackgroundImageFix" stdDeviation="25"/>
<feComposite in2="SourceAlpha" operator="in" result="effect1_backgroundBlur_1733_473"/>
<feColorMatrix in="SourceAlpha" type="matrix" values="0 0 0 0 0 0 0 0 0 0 0 0 0 0 0 0 0 0 127 0" result="hardAlpha"/>
<feOffset dx="5" dy="3"/>
<feComposite in2="hardAlpha" operator="out"/>
<feColorMatrix type="matrix" values="0 0 0 0 0.509554 0 0 0 0 0.509554 0 0 0 0 0.509554 0 0 0 0.25 0"/>
<feBlend mode="normal" in2="effect1_backgroundBlur_1733_473" result="effect2_dropShadow_1733_473"/>
<feBlend mode="normal" in="SourceGraphic" in2="effect2_dropShadow_1733_473" result="shape"/>
</filter>
<filter id="filter2_bd_1733_473" x="130" y="616" width="320" height="320" filterUnits="userSpaceOnUse" color-interpolation-filters="sRGB">
<feFlood flood-opacity="0" result="BackgroundImageFix"/>
<feGaussianBlur in="BackgroundImageFix" stdDeviation="25"/>
<feComposite in2="SourceAlpha" operator="in" result="effect1_backgroundBlur_1733_473"/>
<feColorMatrix in="SourceAlpha" type="matrix" values="0 0 0 0 0 0 0 0 0 0 0 0 0 0 0 0 0 0 127 0" result="hardAlpha"/>
<feOffset dy="4"/>
<feComposite in2="hardAlpha" operator="out"/>
<feColorMatrix type="matrix" values="0 0 0 0 0.509554 0 0 0 0 0.509554 0 0 0 0 0.509554 0 0 0 0.25 0"/>
<feBlend mode="normal" in2="effect1_backgroundBlur_1733_473" result="effect2_dropShadow_1733_473"/>
<feBlend mode="normal" in="SourceGraphic" in2="effect2_dropShadow_1733_473" result="shape"/>
</filter>
<filter id="filter3_bd_1733_473" x="-50" y="375" width="320" height="320" filterUnits="userSpaceOnUse" color-interpolation-filters="sRGB">
<feFlood flood-opacity="0" result="BackgroundImageFix"/>
<feGaussianBlur in="BackgroundImageFix" stdDeviation="25"/>
<feComposite in2="SourceAlpha" operator="in" result="effect1_backgroundBlur_1733_473"/>
<feColorMatrix in="SourceAlpha" type="matrix" values="0 0 0 0 0 0 0 0 0 0 0 0 0 0 0 0 0 0 127 0" result="hardAlpha"/>
<feOffset dx="6"/>
<feComposite in2="hardAlpha" operator="out"/>
<feColorMatrix type="matrix" values="0 0 0 0 0.509554 0 0 0 0 0.509554 0 0 0 0 0.509554 0 0 0 0.25 0"/>
<feBlend mode="normal" in2="effect1_backgroundBlur_1733_473" result="effect2_dropShadow_1733_473"/>
<feBlend mode="normal" in="SourceGraphic" in2="effect2_dropShadow_1733_473" result="shape"/>
</filter>
<filter id="filter4_bd_1733_473" x="639" y="375" width="320" height="320" filterUnits="userSpaceOnUse" color-interpolation-filters="sRGB">
<feFlood flood-opacity="0" result="BackgroundImageFix"/>
<feGaussianBlur in="BackgroundImageFix" stdDeviation="25"/>
<feComposite in2="SourceAlpha" operator="in" result="effect1_backgroundBlur_1733_473"/>
<feColorMatrix in="SourceAlpha" type="matrix" values="0 0 0 0 0 0 0 0 0 0 0 0 0 0 0 0 0 0 127 0" result="hardAlpha"/>
<feOffset dx="3" dy="5"/>
<feComposite in2="hardAlpha" operator="out"/>
<feColorMatrix type="matrix" values="0 0 0 0 0.509554 0 0 0 0 0.509554 0 0 0 0 0.509554 0 0 0 0.25 0"/>
<feBlend mode="normal" in2="effect1_backgroundBlur_1733_473" result="effect2_dropShadow_1733_473"/>
<feBlend mode="normal" in="SourceGraphic" in2="effect2_dropShadow_1733_473" result="shape"/>
</filter>
<filter id="filter5_bd_1733_473" x="433" y="616" width="320" height="320" filterUnits="userSpaceOnUse" color-interpolation-filters="sRGB">
<feFlood flood-opacity="0" result="BackgroundImageFix"/>
<feGaussianBlur in="BackgroundImageFix" stdDeviation="25"/>
<feComposite in2="SourceAlpha" operator="in" result="effect1_backgroundBlur_1733_473"/>
<feColorMatrix in="SourceAlpha" type="matrix" values="0 0 0 0 0 0 0 0 0 0 0 0 0 0 0 0 0 0 127 0" result="hardAlpha"/>
<feOffset dy="4"/>
<feComposite in2="hardAlpha" operator="out"/>
<feColorMatrix type="matrix" values="0 0 0 0 0.509554 0 0 0 0 0.509554 0 0 0 0 0.509554 0 0 0 0.25 0"/>
<feBlend mode="normal" in2="effect1_backgroundBlur_1733_473" result="effect2_dropShadow_1733_473"/>
<feBlend mode="normal" in="SourceGraphic" in2="effect2_dropShadow_1733_473" result="shape"/>
</filter>
<filter id="filter6_d_1733_473" x="610" y="139" width="223" height="225" filterUnits="userSpaceOnUse" color-interpolation-filters="sRGB">
<feFlood flood-opacity="0" result="BackgroundImageFix"/>
<feColorMatrix in="SourceAlpha" type="matrix" values="0 0 0 0 0 0 0 0 0 0 0 0 0 0 0 0 0 0 127 0" result="hardAlpha"/>
<feOffset dx="3" dy="5"/>
<feComposite in2="hardAlpha" operator="out"/>
<feColorMatrix type="matrix" values="0 0 0 0 0.509554 0 0 0 0 0.509554 0 0 0 0 0.509554 0 0 0 0.25 0"/>
<feBlend mode="normal" in2="BackgroundImageFix" result="effect1_dropShadow_1733_473"/>
<feBlend mode="normal" in="SourceGraphic" in2="effect1_dropShadow_1733_473" result="shape"/>
</filter>
<filter id="filter7_b_1733_473" x="560" y="89" width="320" height="320" filterUnits="userSpaceOnUse" color-interpolation-filters="sRGB">
<feFlood flood-opacity="0" result="BackgroundImageFix"/>
<feGaussianBlur in="BackgroundImageFix" stdDeviation="25"/>
<feComposite in2="SourceAlpha" operator="in" result="effect1_backgroundBlur_1733_473"/>
<feBlend mode="normal" in="SourceGraphic" in2="effect1_backgroundBlur_1733_473" result="shape"/>
</filter>
<linearGradient id="paint0_linear_1733_473" x1="231.944" y1="764.034" x2="326.947" y2="818.811" gradientUnits="userSpaceOnUse">
<stop stop-color="#99999F"/>
<stop offset="1" stop-color="#C5C5C7"/>
</linearGradient>
<clipPath id="clip0_1733_473">
<rect width="110" height="110" fill="white" transform="translate(400 55)"/>
</clipPath>
<clipPath id="clip1_1733_473">
<rect width="110" height="110" fill="white" transform="translate(665 194)"/>
</clipPath>
</defs>
</svg>
